<?xml version="1.0" standalone="no"?>
<!DOCTYPE svg PUBLIC "-//W3C//DTD SVG 20010904//EN"
 "http://www.w3.org/TR/2001/REC-SVG-20010904/DTD/svg10.dtd">
<svg version="1.0" xmlns="http://www.w3.org/2000/svg"
 width="28.000000pt" height="28.000000pt" viewBox="0 0 28.000000 28.000000"
 preserveAspectRatio="xMidYMid meet">
<metadata>
Created by potrace 1.15, written by Peter Selinger 2001-2017
</metadata>
<g transform="translate(0.000000,28.000000) scale(0.100000,-0.100000)"
fill="#000000" stroke="none">
<path d="M10 223 c0 -34 1 -35 35 -31 38 4 38 6 38 -102 0 -20 2 -26 4 -12 2
12 8 22 12 22 10 0 47 -40 44 -49 -1 -3 1 -8 3 -10 2 -2 4 32 4 77 l0 82 45 0
c33 0 47 -5 55 -19 7 -14 6 -21 -3 -24 -7 -3 -5 -6 5 -6 14 -1 16 6 13 37 -4
49 -3 48 -17 34 -17 -17 -73 -15 -88 3 -11 13 -8 15 22 15 19 0 39 -4 46 -10
8 -6 7 -5 0 4 -9 9 -48 16 -115 19 l-103 6 0 -36z"/>
</g>
</svg>
